<svg width="1400" height="860" viewBox="0 0 1400 860" xmlns="http://www.w3.org/2000/svg" role="img" aria-label="Chowder Media B2B content production visual placeholder">
  <defs>
    <linearGradient id="bg" x1="0" y1="0" x2="1" y2="1">
      <stop offset="0%" stop-color="#ffffff"/>
      <stop offset="100%" stop-color="#e9f3ff"/>
    </linearGradient>
    <linearGradient id="chip" x1="0" y1="0" x2="1" y2="1">
      <stop offset="0%" stop-color="#4187d1"/>
      <stop offset="100%" stop-color="#7ab0e6"/>
    </linearGradient>
    <linearGradient id="accent" x1="0" y1="0" x2="1" y2="1">
      <stop offset="0%" stop-color="#ed8f0c"/>
      <stop offset="100%" stop-color="#f9be59"/>
    </linearGradient>
  </defs>
  <rect width="1400" height="860" fill="url(#bg)"/>
  <circle cx="170" cy="140" r="120" fill="#ddebfb"/>
  <circle cx="1240" cy="740" r="160" fill="#ffe8c5"/>
  <rect x="120" y="110" width="1160" height="640" rx="38" fill="#ffffff" stroke="#d6e4f4" stroke-width="4"/>
  <rect x="185" y="180" width="1030" height="118" rx="20" fill="#f7fbff"/>
  <rect x="220" y="220" width="370" height="42" rx="10" fill="url(#chip)"/>
  <rect x="620" y="220" width="230" height="42" rx="10" fill="#d8e9fb"/>
  <rect x="870" y="220" width="300" height="42" rx="10" fill="url(#accent)"/>
  <rect x="185" y="334" width="470" height="360" rx="24" fill="#edf5fe"/>
  <rect x="725" y="334" width="490" height="160" rx="24" fill="#fef6e8"/>
  <rect x="725" y="534" width="490" height="160" rx="24" fill="#edf5fe"/>
  <text x="235" y="408" fill="#1f2933" font-size="44" font-family="Arial, sans-serif" font-weight="700">B2B Content</text>
  <text x="235" y="462" fill="#4187d1" font-size="44" font-family="Arial, sans-serif" font-weight="700">Pipeline Engine</text>
  <text x="760" y="402" fill="#1f2933" font-size="34" font-family="Arial, sans-serif" font-weight="700">Strategy</text>
  <text x="760" y="452" fill="#3e4c59" font-size="26" font-family="Arial, sans-serif">Audience + Message Fit</text>
  <text x="760" y="602" fill="#1f2933" font-size="34" font-family="Arial, sans-serif" font-weight="700">Activation</text>
  <text x="760" y="652" fill="#3e4c59" font-size="26" font-family="Arial, sans-serif">Google • YouTube • Meta • LinkedIn</text>
</svg>
